<svg version="1.1" viewBox="0.0 0.0 512.0 512.0" fill="none" stroke="none" stroke-linecap="square" stroke-miterlimit="10" xmlns:xlink="http://www.w3.org/1999/xlink" xmlns="http://www.w3.org/2000/svg"><clipPath id="p.0"><path d="m0 0l512.0 0l0 512.0l-512.0 0l0 -512.0z" clip-rule="nonzero"/></clipPath><g clip-path="url(#p.0)"><path fill="#000000" fill-opacity="0.0" d="m0 0l512.0 0l0 512.0l-512.0 0z" fill-rule="evenodd"/><path fill="#000000" d="m248.81784 165.86238c10.588989 0 20.065094 2.3059082 28.428375 6.9177246c8.396973 4.6118164 15.445038 11.110306 21.144226 19.495422c5.6991577 8.350189 10.049408 18.37741 13.05072 30.081665c3.0013428 11.704239 4.502014 24.753586 4.502014 39.148056c0 16.944977 -2.3268738 31.811096 -6.9806213 44.59842c-4.653778 12.752411 -11.752411 22.727203 -21.29599 29.924438c-9.509857 7.197235 -21.312836 10.795837 -35.408997 10.795837c-7.048065 0 -13.118179 -0.90838623 -18.210327 -2.7251587c-5.058441 -1.8517151 -8.885971 -4.8039856 -11.4826355 -8.856781c-2.5966644 -4.0877686 -3.894989 -9.677826 -3.894989 -16.770264l0 -140.39851c0 -3.8431854 1.129715 -6.620758 3.389145 -8.332733c2.2931519 -1.7468872 5.665436 -2.8299713 10.116852 -3.249237c4.485138 -0.4192505 10.032547 -0.62887573 16.642227 -0.62887573zm8.7005005 -17.084702c-3.7095184 0 -8.531891 0.17468262 -14.467102 0.5240631c-5.9015045 0.31443787 -12.005341 0.628891 -18.311508 0.94332886c-6.306183 0.31443787 -12.157089 0.628891 -17.55275 0.94332886c-5.395645 0.31443787 -9.745895 0.47166443 -13.050735 0.47166443c-4.1479187 0 -8.767944 -0.15722656 -13.860092 -0.47166443c-5.058426 -0.31443787 -10.234894 -0.57647705 -15.529373 -0.7861023c-5.2607574 -0.2096405 -10.285477 -0.31445312 -15.074112 -0.31445312c-1.4500885 0 -2.7990112 0.43673706 -4.0467377 1.3101807c-1.214035 0.83851624 -1.8210449 2.0089417 -1.8210449 3.5112762c0 1.9215851 0.556427 3.4239197 1.669281 4.507004c1.1465912 1.0830841 2.7652893 1.8342438 4.8560944 2.2535095c8.2621 1.9215851 13.742065 4.332321 16.439896 7.2321777c2.6978302 2.8998413 4.0467377 7.791168 4.0467377 14.673965l0 146.1633c0 6.8828125 -1.4500885 11.669312 -4.3502502 14.359528c-2.9001617 2.655304 -8.278961 4.8388977 -16.136383 6.5509033c-2.090805 0.4541626 -3.7095032 1.2228088 -4.8560944 2.3059082c-1.112854 1.0481262 -1.669281 2.53302 -1.669281 4.45459c0 1.5023193 0.6070099 2.6378174 1.8210449 3.4064636c1.2477417 0.7337036 2.5966644 1.1005554 4.0467377 1.1005554c4.7886353 0 9.8133545 -0.10482788 15.074112 -0.31445312c5.2944794 -0.20962524 10.420364 -0.3668518 15.3776245 -0.4716797c4.990967 -0.10479736 9.560425 -0.15719604 13.708328 -0.15719604c3.7095184 0 9.189484 0.15719604 16.439896 0.47164917c7.250412 0.31445312 15.074112 0.68130493 23.4711 1.1005554c8.396988 0.45419312 16.119522 0.6812744 23.167587 0.6812744c17.805664 0 33.537384 -3.0046692 47.19513 -9.014008c13.691467 -6.0093384 25.30899 -14.219757 34.85257 -24.631317c9.543579 -10.41153 16.793976 -22.220581 21.751251 -35.427155c4.990967 -13.206604 7.48645 -26.989655 7.48645 -41.349182c0 -15.267929 -2.7989807 -29.225662 -8.396973 -41.873245c-5.597992 -12.68251 -13.421692 -23.687988 -23.4711 -33.01645c-10.049408 -9.328461 -21.768097 -16.508224 -35.156067 -21.539307c-13.354248 -5.0660095 -27.90567 -7.5990143 -43.654236 -7.5990143z" fill-rule="evenodd"/></g></svg>